<svg version="1.1" xmlns="http://www.w3.org/2000/svg" viewBox="0 0 300 300">
 <g transform="translate(0,300) scale(0.05,-0.05)" fill="currentColor" stroke="currentColor" stroke-width="100" stroke-linejoin="round">
  <path d="M432 2935 c-169 -79 -348 -271 -386 -415 -4 -14 7 3 23 37 79 166
210 297 372 373 35 16 60 29 54 29 -5 1 -34 -10 -63 -24z"/>
  <path d="M4169 5521 c-253 -44 -382 -86 -561 -181 l-141 -75 -409 -10 c-428
-12 -614 -37 -927 -126 -2046 -585 -2297 -3389 -391 -4367 1068 -549 2383
-352 2931 439 106 153 34 180 -117 43 -1068 -968 -2758 -701 -3513 554 -434
723 -386 1579 129 2265 483 644 1195 927 2059 818 l192 -24 195 107 c268 148
464 229 490 203 6 -6 -21 -102 -59 -214 -37 -111 -65 -218 -60 -236 4 -18 295
-513 646 -1100 568 -951 636 -1075 632 -1143 -10 -174 -139 -358 -310 -443
-136 -68 -142 -66 -211 46 -167 271 -429 511 -954 873 -815 563 -1090 856
-1090 1164 0 142 -62 188 -95 71 -109 -392 214 -852 1065 -1518 383 -300 714
-622 881 -858 134 -191 117 -187 349 -88 427 183 648 434 649 739 l1 150 -608
1100 c-341 616 -607 1119 -606 1144 2 24 35 184 74 356 91 397 109 373 -241
311z"/>
 </g>
</svg>